HIERARCHY
ROOT Pelvis
{
	OFFSET 0.000000 0.000000 0.000000
	CHANNELS 6 Xposition Yposition Zposition Xrotation Yrotation Zrotation
	JOINT LeftUpLeg_virtual
	{
		OFFSET 0.000000 0.000000 0.000000
		CHANNELS 3 Xrotation Yrotation Zrotation
		JOINT LeftUpLeg
		{
			OFFSET 18.735201 -5.666702 -4.541200
			CHANNELS 3 Xrotation Yrotation Zrotation
			JOINT LeftLeg
			{
				OFFSET -0.021200 -31.938179 0.493100
				CHANNELS 3 Xrotation Yrotation Zrotation
				JOINT LeftFoot
				{
					OFFSET 0.021200 -31.938179 -4.336299
					CHANNELS 3 Xrotation Yrotation Zrotation
					JOINT LeftToeBase
					{
						OFFSET 0.943001 -26.722000 15.023500
						CHANNELS 3 Xrotation Yrotation Zrotation
						End Site
						{
							OFFSET 0 0 0
						}
					}
				}
			}
		}
	}
	JOINT RightUpLeg_virtual
	{
		OFFSET 0.000000 0.000000 0.000000
		CHANNELS 3 Xrotation Yrotation Zrotation
		JOINT RightUpLeg
		{
			OFFSET -18.735201 -5.666702 -4.541200
			CHANNELS 3 Xrotation Yrotation Zrotation
			JOINT RightLeg
			{
				OFFSET 0.018946 -31.938133 0.493100
				CHANNELS 3 Xrotation Yrotation Zrotation
				JOINT RightFoot
				{
					OFFSET -0.018946 -31.938126 -4.336299
					CHANNELS 3 Xrotation Yrotation Zrotation
					JOINT RightToeBase
					{
						OFFSET -0.943001 -26.722004 15.023500
						CHANNELS 3 Xrotation Yrotation Zrotation
						End Site
						{
							OFFSET 0 0 0
						}
					}
				}
			}
		}
	}
	JOINT Hips_virtual
	{
		OFFSET 0.000000 0.000000 0.000000
		CHANNELS 3 Xrotation Yrotation Zrotation
		JOINT Hips
		{
			OFFSET -0.000000 -0.000000 -0.000000
			CHANNELS 3 Xrotation Yrotation Zrotation
			JOINT Spine
			{
				OFFSET 0.000000 10.199997 -0.299500
				CHANNELS 3 Xrotation Yrotation Zrotation
				JOINT Spine1
				{
					OFFSET 0.000000 11.900002 -1.516600
					CHANNELS 3 Xrotation Yrotation Zrotation
					JOINT Spine2
					{
						OFFSET 0.000000 13.600006 -2.842500
						CHANNELS 3 Xrotation Yrotation Zrotation
						JOINT Neck_virtual
						{
							OFFSET 0.000000 0.000000 0.000000
							CHANNELS 3 Xrotation Yrotation Zrotation
							JOINT Neck
							{
								OFFSET 0.000000 9.624100 -2.890100
								CHANNELS 3 Xrotation Yrotation Zrotation
								JOINT Head
								{
									OFFSET 0.000000 14.068802 -1.351900
									CHANNELS 3 Xrotation Yrotation Zrotation
									End Site
									{
										OFFSET 0 0 0
									}
								}
							}
						}
						JOINT LeftShoulder_virtual
						{
							OFFSET 0.000000 0.000000 0.000000
							CHANNELS 3 Xrotation Yrotation Zrotation
							JOINT LeftShoulder
							{
								OFFSET 15.263000 10.923401 -0.547700
								CHANNELS 3 Xrotation Yrotation Zrotation
								JOINT LeftArm
								{
									OFFSET 25.438599 -2.830597 -13.032500
									CHANNELS 3 Xrotation Yrotation Zrotation
									JOINT LeftForeArm
									{
										OFFSET 29.960503 0.000000 0.000000
										CHANNELS 3 Xrotation Yrotation Zrotation
										JOINT LeftHand
										{
											OFFSET 27.849251 0.000000 0.000000
											CHANNELS 3 Xrotation Yrotation Zrotation
											End Site
											{
												OFFSET 0 0 0
											}
										}
									}
								}
							}
						}
						JOINT RightShoulder_virtual
						{
							OFFSET 0.000000 0.000000 0.000000
							CHANNELS 3 Xrotation Yrotation Zrotation
							JOINT RightShoulder
							{
								OFFSET -15.263000 10.923401 -0.547700
								CHANNELS 3 Xrotation Yrotation Zrotation
								JOINT RightArm
								{
									OFFSET -25.438599 -2.830597 -13.032500
									CHANNELS 3 Xrotation Yrotation Zrotation
									JOINT RightForeArm
									{
										OFFSET -29.960503 0.000000 0.000000
										CHANNELS 3 Xrotation Yrotation Zrotation
										JOINT RightHand
										{
											OFFSET -27.849251 0.000000 0.000000
											CHANNELS 3 Xrotation Yrotation Zrotation
											End Site
											{
												OFFSET 0 0 0
											}
										}
									}
								}
							}
						}
					}
				}
			}
		}
	}
}
MOTION
Frames: 12
Frame Time: 0.03333333
0.360543 86.550865 1.056831 0.000000 0.000000 0.000000 0.117939 -28.533366 0.235071 -46.392325 2.925232 17.864416 73.618320 1.869952 -1.707717 18.013533 1.525964 -5.959523 0.000000 0.000000 0.000000 12.967518 4.569004 1.797832 -12.685717 -5.358519 -12.189297 40.514701 1.355180 -1.136147 -11.034334 -1.611868 10.604156 0.000000 0.000000 0.000000 6.904194 -13.201529 1.584947 27.601771 -11.869489 3.562091 10.091839 3.046820 -2.347848 3.317078 1.605675 -1.068342 0.000000 0.000000 0.000000 -3.509557 1.875435 0.400628 -3.390109 1.095907 0.092610 0.000000 0.000000 0.000000 -3.761536 0.621363 2.125041 -4.459841 -5.934750 3.550130 -58.758765 -12.341788 -43.634172 -42.481553 -74.576397 -29.365760 0.000000 0.000000 0.000000 -0.548256 1.290825 1.571022 -3.638665 12.494180 10.518467 -12.345606 26.945790 36.681155 11.015751 72.065613 -11.743544 0.000000 0.000000 0.000000 
0.793309 87.968277 5.880695 0.000000 0.000000 0.000000 -4.468553 -28.635906 -1.339737 -50.797298 2.253253 17.113082 73.701819 1.047521 -1.454737 17.791886 0.484825 -6.385904 0.000000 0.000000 0.000000 13.891288 5.803730 1.099078 -10.562028 -5.047709 -12.332500 41.138093 -0.203552 -1.143938 -10.378186 -3.063022 9.420719 0.000000 0.000000 0.000000 6.049969 -12.771498 0.727120 29.488625 -8.762074 1.727415 10.670442 3.752260 -3.115561 3.537178 2.383317 -1.035504 0.000000 0.000000 0.000000 -4.227743 2.018338 0.667674 -3.673815 1.249527 0.289943 0.000000 0.000000 0.000000 -4.485598 0.670468 2.508432 -4.104887 -4.861943 4.415443 -56.753667 -14.519633 -42.992366 -35.068513 -75.464943 -23.282254 0.000000 0.000000 0.000000 -1.289427 1.834523 1.667051 -4.265839 14.414904 11.425169 -11.580930 31.684544 31.874905 19.065568 76.730700 -21.042937 0.000000 0.000000 0.000000 
0.212396 87.904472 12.617489 0.000000 0.000000 0.000000 -7.433163 -26.417896 -3.119728 -53.200808 2.732030 15.839957 73.554546 0.711970 -1.424047 18.307923 0.098896 -6.697891 0.000000 0.000000 0.000000 15.608171 5.110364 1.442422 -7.352699 -5.519830 -11.642269 41.177848 -1.160462 -0.657178 -10.246548 -4.236475 9.474623 0.000000 0.000000 0.000000 7.611518 -11.663254 1.229078 27.320659 -7.713933 -1.719599 12.572298 4.418357 -3.556843 3.567542 2.755218 -0.548145 0.000000 0.000000 0.000000 -4.756834 1.847748 1.310150 -4.072677 1.126083 0.484552 0.000000 0.000000 0.000000 -4.676955 0.942335 3.088052 -4.038749 -6.149823 5.429560 -52.132758 -19.212774 -40.281570 -22.244727 -74.617078 -11.492284 0.000000 0.000000 0.000000 -2.107577 2.084202 1.741885 -4.899184 14.587332 11.236896 -10.960703 33.136198 31.269200 21.172128 76.650992 -23.903885 0.000000 0.000000 0.000000 
-0.259125 88.926804 21.371853 0.000000 0.000000 0.000000 -9.135446 -27.509284 -3.602977 -55.355517 2.278093 15.944511 72.397157 0.713809 -1.079492 17.585220 -0.037318 -6.221494 0.000000 0.000000 0.000000 15.737340 4.335336 2.269632 -6.648940 -5.816029 -10.619826 42.936219 -2.272151 0.102467 -8.710517 -5.603571 9.913200 0.000000 0.000000 0.000000 6.554130 -10.352341 0.248448 30.242657 -8.313964 -2.549086 12.481893 4.832796 -3.392239 4.168040 3.510124 -0.945845 0.000000 0.000000 0.000000 -4.858298 1.670031 1.877282 -4.035283 0.989060 0.772242 0.000000 0.000000 0.000000 -4.433269 1.038983 2.993247 -4.485336 -4.214353 5.659891 -48.714975 -19.539629 -38.338152 -16.634668 -73.985784 -6.480802 0.000000 0.000000 0.000000 -2.297770 2.604551 1.612466 -5.580359 15.181229 11.865023 -15.646894 32.956756 30.439947 21.889291 78.747382 -25.968135 0.000000 0.000000 0.000000 
-1.288876 89.050758 24.161263 0.000000 0.000000 0.000000 -10.749353 -22.662839 -3.065690 -57.593630 2.794090 16.861358 69.209610 0.965119 -0.857241 14.944749 0.249210 -5.726868 0.000000 0.000000 0.000000 15.944418 4.260795 2.176103 -6.258482 -5.866775 -10.647849 44.563064 -3.459969 0.814912 -7.533315 -7.023125 10.193829 0.000000 0.000000 0.000000 7.416467 -9.602481 -0.158767 28.432259 -11.085896 -3.919929 13.157822 5.986994 -4.571152 3.657370 4.002376 -1.017022 0.000000 0.000000 0.000000 -4.551604 1.389703 1.929825 -4.025423 0.913903 0.803147 0.000000 0.000000 0.000000 -4.151078 1.042373 3.258295 -4.376223 -3.586473 5.679669 -47.066052 -22.131592 -37.100181 -13.819371 -75.714177 -4.054314 0.000000 0.000000 0.000000 -2.767653 2.702145 1.552279 -5.591518 15.966476 10.800055 -15.136126 32.811293 27.318072 27.138638 79.784922 -31.949969 0.000000 0.000000 0.000000 
-1.038390 89.584435 31.420788 0.000000 0.000000 0.000000 -9.942325 -18.823291 -3.613584 -56.845547 4.203183 16.396122 64.710763 1.109028 -0.817336 11.206397 0.544369 -5.641984 0.000000 0.000000 0.000000 16.702869 4.321242 1.605027 -4.956159 -5.877163 -11.108097 45.866001 -4.420962 1.533296 -6.437962 -8.242459 10.616639 0.000000 0.000000 0.000000 5.696342 -9.659271 1.107238 30.264623 -1.659671 0.870275 12.413383 6.408682 -5.542709 4.126566 4.886323 -1.517769 0.000000 0.000000 0.000000 -5.759766 1.094692 2.017329 -4.201063 0.631417 0.789484 0.000000 0.000000 0.000000 -3.586172 1.265049 3.398682 -3.628490 -2.944462 6.728905 -42.081957 -21.605101 -32.390915 -3.435866 -73.445079 5.751692 0.000000 0.000000 0.000000 -2.364767 2.965541 1.555655 -5.237551 16.230804 10.806688 -11.986999 34.705161 24.334144 30.364740 77.387102 -34.812241 0.000000 0.000000 0.000000 
0.000484 89.465004 37.453503 0.000000 0.000000 0.000000 -10.367370 -15.183056 -3.504508 -56.929644 4.864990 16.268751 60.091888 1.337388 -0.429452 7.478737 0.764793 -4.953747 0.000000 0.000000 0.000000 16.358750 7.292961 1.759876 -5.391120 -4.980429 -10.457030 49.213630 -4.523745 2.356377 -4.019985 -8.535572 11.802245 0.000000 0.000000 0.000000 5.616266 -8.020676 1.393932 29.967561 -0.758047 3.214015 14.434527 7.782545 -5.385466 5.548153 4.781812 -1.363655 0.000000 0.000000 0.000000 -5.173514 0.788753 2.285321 -4.057852 0.414637 0.881070 0.000000 0.000000 0.000000 -2.833602 1.556978 3.436353 -3.342625 -2.617048 6.551123 -39.285575 -22.323433 -28.087398 0.580797 -72.910132 9.940236 0.000000 0.000000 0.000000 -2.067229 3.015790 1.582416 -4.859934 14.795443 11.293870 -12.688085 30.737873 26.192748 20.664003 75.020885 -24.960339 0.000000 0.000000 0.000000 
-0.819246 90.161087 42.727802 0.000000 0.000000 0.000000 -9.446129 -13.123943 -3.415588 -55.382913 5.481980 15.918762 55.528198 1.332108 0.347265 3.918878 0.571694 -3.838046 0.000000 0.000000 0.000000 17.330664 9.526682 2.256795 -3.735994 -4.565981 -9.340863 53.595012 -4.603490 2.834286 -0.363263 -8.519484 12.403314 0.000000 0.000000 0.000000 5.145225 -9.727037 1.153878 30.706710 3.486501 1.037729 16.050019 8.927216 -5.825608 5.528954 5.492300 -1.821668 0.000000 0.000000 0.000000 -4.421534 0.866687 2.371375 -3.814104 0.314179 1.044213 0.000000 0.000000 0.000000 -2.140903 1.757328 2.995331 -3.252958 -0.606503 4.875719 -31.545048 -20.903507 -23.239789 7.925621 -71.576694 17.151834 0.000000 0.000000 0.000000 -1.827215 3.495042 1.427107 -5.669349 15.484409 12.038570 -9.545109 28.874358 25.069187 19.619981 73.468588 -23.409995 0.000000 0.000000 0.000000 
-1.958787 89.222977 47.308952 0.000000 0.000000 0.000000 -8.770668 -12.255618 -4.318957 -54.370621 6.269359 14.947113 51.945453 0.735795 0.904051 0.693133 -0.179664 -3.487449 0.000000 0.000000 0.000000 17.689005 10.749784 2.770509 -3.645202 -4.388894 -8.722455 59.977851 -4.397998 3.113171 3.950458 -8.024419 12.862223 0.000000 0.000000 0.000000 5.149981 -9.174133 1.477389 27.128605 2.916503 -0.787362 16.915829 8.887051 -5.901702 6.002292 5.598695 -1.584173 0.000000 0.000000 0.000000 -4.245718 0.581362 2.382994 -3.770257 0.134490 1.018689 0.000000 0.000000 0.000000 -2.018108 1.774381 2.709368 -3.173253 -0.612694 3.373473 -26.943139 -20.410482 -20.301276 11.244542 -69.189120 20.023224 0.000000 0.000000 0.000000 -1.929686 3.273858 1.673134 -5.599691 14.668492 12.917675 -7.170944 26.335294 26.241378 15.618916 69.281723 -18.496781 0.000000 0.000000 0.000000 
-2.757681 88.860641 52.484085 0.000000 0.000000 0.000000 -7.580572 -9.524152 -4.824005 -52.855221 7.411407 14.294869 48.204142 0.336615 1.359414 -2.580081 -0.667202 -3.121363 0.000000 0.000000 0.000000 17.664650 12.383893 3.220578 -3.773919 -4.002099 -8.008106 64.176143 -4.042935 3.007766 7.202805 -7.327943 12.892164 0.000000 0.000000 0.000000 5.096976 -8.418289 2.103602 25.861540 4.617396 0.304193 17.548785 8.909314 -6.005057 6.278751 5.594450 -1.627318 0.000000 0.000000 0.000000 -4.098512 0.103543 2.467308 -3.750412 -0.082246 0.999543 0.000000 0.000000 0.000000 -1.464774 1.541660 2.407025 -2.776911 -0.107113 1.023083 -19.792684 -19.371021 -18.554979 15.456025 -68.572169 22.960974 0.000000 0.000000 0.000000 -1.474408 3.012519 1.891566 -5.463140 12.737025 13.391919 -4.882886 22.688227 27.329848 15.030490 67.371278 -17.133330 0.000000 0.000000 0.000000 
-3.820279 88.201607 58.959648 0.000000 0.000000 0.000000 -5.449658 -9.020500 -5.323993 -49.923417 8.204925 13.389823 45.932431 -0.227498 1.859871 -4.732731 -1.369546 -2.792251 0.000000 0.000000 0.000000 17.315989 12.371882 2.771881 -4.560428 -3.933566 -8.649403 67.581115 -4.426517 2.515365 10.363342 -7.232256 11.646211 0.000000 0.000000 0.000000 4.651101 -6.614741 1.606887 25.029104 6.436162 -2.110430 18.677195 8.596539 -6.818525 6.686383 5.418846 -1.903465 0.000000 0.000000 0.000000 -3.608894 -0.344362 2.432229 -3.611996 -0.276055 1.042535 0.000000 0.000000 0.000000 -0.814506 1.325773 1.937509 -2.634652 0.632223 -1.271936 -14.663214 -16.468269 -18.425151 18.042607 -66.359188 24.471588 0.000000 0.000000 0.000000 -0.867874 2.609369 1.717368 -4.546392 10.527762 13.680012 -0.728511 19.505236 26.803035 14.735245 65.539756 -16.450569 0.000000 0.000000 0.000000 
-4.005713 87.614670 64.813644 0.000000 0.000000 0.000000 -2.511669 -8.741970 -5.430422 -45.720655 8.910158 12.598800 44.406359 -0.738425 2.241172 -6.005676 -2.006367 -2.569249 0.000000 0.000000 0.000000 15.540108 12.846533 2.629304 -6.986887 -3.516854 -8.917282 69.097158 -4.770719 1.986195 12.227884 -7.222420 10.393974 0.000000 0.000000 0.000000 4.388733 -7.533495 1.675108 25.895593 9.837639 -4.684925 19.184323 8.177218 -6.545666 6.903349 5.072456 -1.854604 0.000000 0.000000 0.000000 -2.940135 -1.026963 2.498548 -3.484761 -0.598386 1.085414 0.000000 0.000000 0.000000 -0.396296 0.806806 1.424365 -2.741019 -0.472894 -4.207598 -9.720412 -17.070390 -20.643041 20.301812 -67.240870 25.365041 0.000000 0.000000 0.000000 -0.066605 2.093390 1.589617 -3.957334 8.140566 13.313415 3.138577 16.299522 26.032726 15.598573 63.757753 -16.943792 0.000000 0.000000 0.000000 
